<?xml version="1.0" encoding="utf-8"?>
<!-- Generator: Adobe Illustrator 25.2.3, SVG Export Plug-In . SVG Version: 6.00 Build 0)  -->
<svg version="1.1" id="Layer_2_1_" xmlns="http://www.w3.org/2000/svg" xmlns:xlink="http://www.w3.org/1999/xlink" x="0px" y="0px"
	 viewBox="0 0 594.9 539.1" style="enable-background:new 0 0 594.9 539.1;" xml:space="preserve">
<style type="text/css">
	.st0{fill:#FFFFFF;stroke:#000000;stroke-miterlimit:10;}
	.st1{fill:#666666;stroke:#000000;}
	.st2{fill:none;}
	.st3{fill:#C6C6C6;stroke:#000000;stroke-width:2.126;}
	.st4{fill:#ADACAC;}
	.st5{fill:#757575;stroke:#000000;stroke-miterlimit:10;}
</style>
<path class="st0" d="M0.5,0.5v41.3H594V72H0.5v466.6h593.9V0.5H0.5z M392.5,107.2c13,0,23.5,10.2,23.5,22.7s-10.5,22.7-23.5,22.7
	S369,142.4,369,129.9S379.5,107.2,392.5,107.2z M86,281.7c1.3-6.4,8.8-10.2,12.7-12.1c9.8-4.8,16-2.5,17.2-5.3
	c0.9-2.2-1.1-7.5-35.6-31.7c-19.9-14-26.4-17.3-29.6-26.7c-2.6-7.9-3-20.3,4.2-26.1c3.2-2.6,8-3.8,12.4-2.7
	c8.7,2.2,7.7,13.4,19.3,20.7c3.1,2,7.1,4.6,11.6,3.6c2.5-0.5,4.7-2.2,12.7-15.1c5.5-9,8.3-13.5,8.1-16c-1-7.4-9.5-7.3-13.3-16.3
	c-3-7.2-2-17.9,5-23.7c4.5-3.7,11.9-5.8,17.2-3c4.7,2.5,3.5,6.6,10.1,16.3c4,5.8,8.3,12,14.2,12.4c4.2,0.2,4.6-2.7,9.8-2.7
	c4.7-0.1,10.3,2.7,13.9,6.8c1.8,2.1,2.7,4.2,5.6,5.6c1.2,0.6,3.7,1.8,5.3,0.9c3.3-1.9-1.1-10.2,2.7-14.5c2.5-2.8,6.9-2.3,10.7-2.1
	c1.4,0.1,16.5,1.3,21,12.7c0.4,0.9,2.7,7.2,0,13.3c-3.1,6.8-10.1,7.6-11.3,14.5c-0.2,1.1-0.6,3.8,0.9,5.6c2.5,3,7.6,0,13.6,0.9
	c9.3,1.4,18.1,11.6,16.9,18.7c-1,6.5-10,6.6-10.4,11.8c-0.7,8.3,21.7,10.9,25.8,25.8c1.5,5.6,0.2,12.2-3.6,16.6
	c-4.8,5.6-13.8,7.8-20.1,5c-11.2-5.1-7-23.2-16-26.4c-8.4-2.9-23.6,8.6-24,19.9c-0.3,7.3,5.6,12.4,13,19.3
	c31.1,28.9,49.5,46.3,47.1,60.7c-1,6.5-6.6,13.4-13,14.8c-19.7,4.4-43.2-44-53.3-39.4c-5.2,2.4,0.2,15.4-8.6,23.7
	c-5.7,5.3-16.3,7.8-24.6,2.7c-8.8-5.4-11.9-17.5-8.3-24.6c5.5-10.8,24.1-6.5,26.4-14.5c1.8-6.3-8.2-14-24.6-26.7
	c-14.6-11.3-17.9-10.6-19.3-9.8c-4.6,2.7,1.3,13.6-5.3,21.9c-5.6,7.1-15.8,6.5-16.3,6.5C94.5,302.2,84.2,290.5,86,281.7z
	 M345.1,512.1c-17.1,13.4-39.5,11.6-61.6,9.8c-19.6-1.6-21.4-4.6-45-5.9c-10.2-0.5-23.2-0.1-32.9,0.1c-20.2,0.4-19.3,1-26.4,0.6
	c-3.6-0.2-19.3-1.1-39-7.4c-12.8-4-19.3-6.2-25.6-12.5c-3.1-3.1-10.1-10-10.4-20.1c-0.6-15.7,15.4-25.6,17-26.6
	c4.3-2.6,11.1-3.7,24.7-5.8c22.2-3.4,24.8-2.3,34.1-5.8c4.6-1.7,3.3-1.7,20-10.1c14.6-7.3,21.9-11,26.4-12.3
	c14.6-4.3,27.2-2.6,35.3-1.5c14,2,17,5.3,32.5,10c32.5,9.8,50.3,4.5,52.4,11.5c3.1,10.4-34.3,28.5-31,35.7
	c1.5,3.2,10.6,3.4,21.2,3.6c8,0.1,11.7-0.7,15.7,2c5.4,3.7,6.4,10.4,6.5,11C360.4,500.1,347.6,510.1,345.1,512.1z M397.9,264.8
	c-5.2-2.5-11.5-3.7-24-6.2c-14.8-2.9-17.9-2.8-20.7-6.2c-4.6-5.6-4.1-15.9,0.8-21.6c1.5-1.7,4-3.8,20.5-6.6
	c17.8-2.9,21.2-1.6,27-5.5c5.3-3.5,3.8-5.5,11.6-12.7c5.5-5.1,10.4-9.7,18.2-11.6c11.2-2.8,20.5,1.7,22.7,2.8
	c6.1,3.2,9.6,7.5,13,11.6c9,10.9,6.8,15.8,13.2,20.1c4.4,2.9,6,0.9,23,2.8c19,2.1,22.3,5.1,23.9,7.6c2.7,4.3,1.6,9.3,1.3,10.7
	c-1.9,9-11.1,14.8-18.4,16.8c-12.3,3.4-15.9-4.6-27.5-1.5c-8.6,2.3-7.6,6.9-22.1,14.8c-7.5,4.1-12.7,6.9-20,7.1
	c-8.8,0.3-15.6-3.5-21.9-7.1C406.7,273.4,407.9,269.7,397.9,264.8z M479.7,493.1c-28.9,0-52.4-23.1-52.4-51.7
	c0-28.6,23.5-51.7,52.4-51.7c28.9,0,52.4,23.1,52.4,51.7C532.1,470,508.6,493.1,479.7,493.1z"/>
<path class="st1" d="M237.5,368.6c-13.1,0-25-13.9-35.6-26.2c-3.7-4.3-8.9-10.4-12.1-12.8c-0.1,0.7-0.1,1.4-0.2,2.1
	c-0.4,5.3-1,13.3-7.6,19.4c-4.7,4.4-11.5,7-18.3,7c-4.7,0-9.2-1.3-13.1-3.6c-10.8-6.6-15.6-21.5-10.4-32
	c4.1-8.1,12.9-10.1,19.2-11.5c2.2-0.5,5.8-1.3,6.7-2.1c-0.1-0.4-0.7-2.2-5-6.3c-4.1-3.9-10-8.5-17.6-14.3
	c-6.4-4.9-10.1-7.1-12.1-8.2c0,0.5,0,1.1,0,1.6c0.1,4.6,0.3,11.6-4.6,17.8c-6.2,7.9-16,8.7-19.9,8.7c-0.7,0-1.2,0-1.3,0
	c-7.8-0.5-15.5-4.9-20.6-11.6c-4-5.3-5.7-11.3-4.7-16.5c1.8-9.2,11.3-13.9,15.8-16.1c4.5-2.3,8.4-3.2,11.4-3.7
	c-3.7-3.7-12-10.7-30.5-23.7c-2.9-2.1-5.6-3.9-7.9-5.5c-14.5-10-20.5-14.2-23.8-24c-3.5-10.4-3.2-24.9,6-32.3
	c3.4-2.8,8-4.3,12.6-4.3c1.6,0,3.2,0.2,4.7,0.6c6.7,1.7,9.6,6.7,12.2,11.1c2.2,3.8,4.2,7.4,8.8,10.3c2,1.3,4.5,2.9,6.5,2.9
	c0.3,0,0.5,0,0.8-0.1H97c0.6-0.3,2.6-2.1,9-12.5c3.3-5.4,6.8-11,7.2-12.8c-0.2-1.1-1-1.8-3.5-3.6c-2.9-2.2-7-5.2-9.4-11.1
	c-3.7-8.9-2.6-22.6,6.7-30.3c4.2-3.5,9.9-5.6,15.2-5.6c3,0,5.8,0.7,8.3,1.9c4.4,2.3,5.8,5.7,7.2,9c1,2.3,2.2,5.2,4.9,9.1
	c3.1,4.6,6.7,9.8,9.9,10h0.2c0.2,0,0.3,0,1.2-0.5c1.6-0.9,4-2.2,8.1-2.2h0.1c6.4,0,13.5,3.4,18.1,8.8c0.6,0.7,1.1,1.4,1.6,2
	c0.2,0.2,0.3,0.4,0.5,0.6c-0.1-3.3,0.1-7.4,3-10.7c3.7-4.2,9.2-4.2,11.1-4.2c1.3,0,2.6,0.1,3.7,0.2h0.5c2.1,0.1,20.2,1.7,25.9,16.3
	c0.9,2.2,3.4,9.9-0.1,17.7c-2,4.4-4.9,6.8-7.4,8.8c-2.4,2-3.2,2.8-3.5,4.3c0,0.1,0,0.2-0.1,0.3c0.4,0,0.9-0.1,1.4-0.2
	c1.5-0.2,3.2-0.4,5.1-0.4c1.1,0,2.2,0.1,3.3,0.2c6.4,0.9,13.2,5.2,17.5,11.2c3.4,4.6,4.9,9.6,4.1,14c-1,5.9-5.4,8.7-8.4,10.5
	c-0.4,0.3-1,0.6-1.5,1c1.3,1.2,4.2,2.8,6.2,4c6.8,3.9,16.1,9.4,19,19.8c2,7.5,0.2,16.1-4.7,21.8c-4.4,5.1-11.4,8.2-18.4,8.2
	c-3,0-5.9-0.6-8.4-1.7c-8.3-3.8-10.5-12.2-12.2-18.4c-0.9-3.4-1.9-7.3-3.4-7.8c-0.3-0.1-0.6-0.1-1.1-0.1c-5.7,0-15.1,8.1-15.4,14.9
	c-0.1,4.1,3.6,7.9,10.3,14l0.9,0.9c32.3,30,51.8,48.2,48.8,65.8c-1.5,9.2-9,17.6-17.4,19.4C240,368.5,238.8,368.6,237.5,368.6z
	 M110.9,185.8c-8,12.9-10.2,14.6-12.7,15.1c-4.5,1-8.5-1.6-11.6-3.6C75,189.9,76,178.7,67.3,176.6c-4.4-1.1-9.2,0.1-12.4,2.7
	c-7.2,5.8-6.8,18.2-4.2,26.1c3.2,9.4,9.7,12.7,29.6,26.7c34.5,24.2,36.5,29.5,35.6,31.7c-1.2,2.8-7.4,0.5-17.2,5.3
	c-3.9,1.9-11.4,5.7-12.7,12.1c-1.8,8.8,8.5,20.5,20.2,21.3c0.5,0,10.7,0.6,16.3-6.5c6.6-8.3,0.7-19.2,5.3-21.9
	c1.4-0.8,4.7-1.5,19.3,9.8c16.4,12.7,26.4,20.4,24.6,26.7c-2.3,8-20.9,3.7-26.4,14.5c-3.6,7.1-0.5,19.2,8.3,24.6
	c8.3,5.1,18.9,2.6,24.6-2.7c8.8-8.3,3.4-21.3,8.6-23.7c10.1-4.6,33.6,43.8,53.3,39.4c6.4-1.4,12-8.3,13-14.8
	c2.4-14.4-16-31.8-47.1-60.7c-7.4-6.9-13.3-12-13-19.3c0.4-11.3,15.6-22.8,24-19.9c9,3.2,4.8,21.3,16,26.4c6.3,2.8,15.3,0.6,20.1-5
	c3.8-4.4,5.1-11,3.6-16.6c-4.1-14.9-26.5-17.5-25.8-25.8c0.4-5.2,9.4-5.3,10.4-11.8c1.2-7.1-7.6-17.3-16.9-18.7
	c-6-0.9-11.1,2.1-13.6-0.9c-1.5-1.8-1.1-4.5-0.9-5.6c1.2-6.9,8.2-7.7,11.3-14.5c2.7-6.1,0.4-12.4,0-13.3
	c-4.5-11.4-19.6-12.6-21-12.7c-3.8-0.2-8.2-0.7-10.7,2.1c-3.8,4.3,0.6,12.6-2.7,14.5c-1.6,0.9-4.1-0.3-5.3-0.9
	c-2.9-1.4-3.8-3.5-5.6-5.6c-3.6-4.1-9.2-6.9-13.9-6.8c-5.2,0-5.6,2.9-9.8,2.7c-5.9-0.4-10.2-6.6-14.2-12.4
	c-6.6-9.7-5.4-13.8-10.1-16.3c-5.3-2.8-12.7-0.7-17.2,3c-7,5.8-8,16.5-5,23.7c3.8,9,12.3,8.9,13.3,16.3
	C119.2,172.2,116.4,176.7,110.9,185.8z"/>
<circle class="st2" cx="258.6" cy="152.3" r="17.4"/>
<circle class="st3" cx="104.4" cy="341.9" r="17.4"/>
<circle class="st3" cx="258.6" cy="152.3" r="17.4"/>
<circle class="st3" cx="383.2" cy="332.5" r="13.8"/>
<ellipse transform="matrix(0.1602 -0.9871 0.9871 0.1602 280.7 654.5233)" class="st3" cx="525" cy="162.3" rx="16.1" ry="16.1"/>
<path class="st1" d="M479.7,497.8c-32,0-58-25.7-58-57.4s26-57.4,58-57.4s58,25.7,58,57.4C537.7,472,511.7,497.8,479.7,497.8z
	 M479.7,388.7c-28.9,0-52.4,23.1-52.4,51.7s23.5,51.7,52.4,51.7s52.4-23.1,52.4-51.7S508.6,388.7,479.7,388.7z"/>
<path class="st1" d="M306.2,528.9c-7.7,0-15.5-0.6-23.1-1.3c-9.2-0.7-14.7-1.8-20-2.8c-6.4-1.2-12.4-2.4-24.9-3.1
	c-3.3-0.2-7.1-0.3-11.6-0.3c-5.4,0-10.9,0.1-15.9,0.2c-1.7,0-3.4,0.1-5,0.1c-9.4,0.2-14.2,0.4-17.3,0.5c-2.1,0.1-3.6,0.2-5.2,0.2
	c-1.2,0-2.5,0-4.2-0.1c-7.3-0.4-22.2-1.8-40.4-7.6c-12.8-4.1-20.5-6.5-27.9-13.9c-3.5-3.5-11.6-11.6-12-24
	c-0.6-18.5,16.4-29.6,19.8-31.7c5.3-3.2,13-4.4,26.8-6.5c8.6-1.3,14.4-2,18.6-2.5c6.6-0.8,9.3-1.1,14.4-2.9c2-0.7,2.5-1,5.1-2.4
	c2.4-1.3,6.3-3.4,14.3-7.4c15.3-7.7,22.3-11.2,27.3-12.7c6.9-2,13.9-3,21.4-3c6.2,0,11.5,0.7,16.3,1.4c9.3,1.3,14.3,3.3,20.1,5.5
	c3.5,1.4,7.5,2.9,13.2,4.6c15.8,4.8,27.8,5.8,36.5,6.6c10.1,0.9,17.5,1.5,19.6,8.7c2.8,9.3-7.9,17.7-19.3,26.6c-3,2.4-7.1,5.6-9.6,8
	c3.6,0.5,9.3,0.6,13.8,0.6c0.8,0,1.5,0,2.2,0c0.9,0,1.7,0,2.5,0c0.7,0,1.4,0,2,0c4,0,8,0.2,12.1,3c7.7,5.2,8.9,14.6,9,15
	c1.1,9.6-4.6,19.9-16.1,28.8C334.6,527.6,317.7,528.9,306.2,528.9z M145.9,444.3c-13.6,2.1-20.4,3.2-24.7,5.8
	c-1.6,1-17.6,10.9-17,26.6c0.3,10.1,7.3,17,10.4,20.1c6.3,6.3,12.8,8.5,25.6,12.5c19.7,6.3,35.4,7.2,39,7.4
	c7.1,0.4,6.2-0.2,26.4-0.6c9.7-0.2,22.7-0.6,32.9-0.1c23.6,1.3,25.4,4.3,45,5.9c22.1,1.8,44.5,3.6,61.6-9.8c2.5-2,15.3-12,13.9-23.7
	c-0.1-0.6-1.1-7.3-6.5-11c-4-2.7-7.7-1.9-15.7-2c-10.6-0.2-19.7-0.4-21.2-3.6c-3.3-7.2,34.1-25.3,31-35.7c-2.1-7-19.9-1.7-52.4-11.5
	c-15.5-4.7-18.5-8-32.5-10c-8.1-1.1-20.7-2.8-35.3,1.5c-4.5,1.3-11.8,5-26.4,12.3c-16.7,8.4-15.4,8.4-20,10.1
	C170.7,442,168.1,440.9,145.9,444.3z"/>
<path class="st1" d="M439.7,292.9c-9.9,0-17.4-4.2-23.9-7.9c-6.5-3.7-9.6-6.7-12.2-9.2c-2.3-2.3-4-3.9-8.1-5.9
	c-4.5-2.2-10.6-3.4-22.6-5.8c-2.8-0.5-5.2-1-7.2-1.4c-9.4-1.7-13.3-2.5-16.8-6.8c-6.3-7.7-5.9-20.9,0.8-28.9c3-3.5,7.5-5.7,24.1-8.5
	c6.3-1,10.9-1.6,14.3-1.9c6.3-0.7,7.9-0.9,10.4-2.7c1.7-1.1,2.2-1.8,3.3-3.4c1.3-2,3.2-4.7,7.6-8.8c5.6-5.2,11.5-10.6,20.7-12.9
	c2.8-0.7,5.7-1.1,8.7-1.1c8.2,0,14.8,2.7,17.9,4.3c7.2,3.7,11.3,8.6,14.9,13c4.9,5.9,6.8,10.4,8.3,13.7c1.4,3.1,1.9,4.1,3.7,5.3
	c1.1,0.7,1.2,0.8,5.4,0.9c3.1,0.1,7.7,0.2,15,1c19.4,2.1,25,5.3,28.1,10.2c2.6,4.1,3.3,9.1,2.1,14.9c-2.5,11.6-13.6,18.6-22.5,21.1
	c-2.6,0.7-5,1.1-7.4,1.1c-4,0-7.2-1-10-1.8c-2.2-0.7-4.2-1.3-6.3-1.3c-1.2,0-2.5,0.2-3.8,0.5c-3,0.8-4.1,1.8-6.5,4
	c-2.8,2.5-6.5,6-14.4,10.3c-7.8,4.2-13.9,7.6-22.5,7.8C440.3,292.9,440,292.9,439.7,292.9z M354,230.8c-4.9,5.7-5.4,16-0.8,21.6
	c2.8,3.4,5.9,3.3,20.7,6.2c12.5,2.5,18.8,3.7,24,6.2c10,4.9,8.8,8.6,20.6,15.3c6.3,3.6,13.1,7.4,21.9,7.1c7.3-0.2,12.5-3,20-7.1
	c14.5-7.9,13.5-12.5,22.1-14.8c11.6-3.1,15.2,4.9,27.5,1.5c7.3-2,16.5-7.8,18.4-16.8c0.3-1.4,1.4-6.4-1.3-10.7
	c-1.6-2.5-4.9-5.5-23.9-7.6c-17-1.9-18.6,0.1-23-2.8c-6.4-4.3-4.2-9.2-13.2-20.1c-3.4-4.1-6.9-8.4-13-11.6
	c-2.2-1.1-11.5-5.6-22.7-2.8c-7.8,1.9-12.7,6.5-18.2,11.6c-7.8,7.2-6.3,9.2-11.6,12.7c-5.8,3.9-9.2,2.6-27,5.5
	C358,227,355.5,229.1,354,230.8z"/>
<circle class="st3" cx="316.6" cy="395.2" r="14"/>
<circle class="st4" cx="478.6" cy="396.4" r="3"/>
<circle class="st4" cx="467.8" cy="425" r="3"/>
<circle class="st4" cx="461.3" cy="402.9" r="3"/>
<circle class="st4" cx="441.8" cy="429.4" r="3"/>
<circle class="st4" cx="436.5" cy="447.8" r="3"/>
<circle class="st4" cx="493.6" cy="410" r="3"/>
<circle class="st4" cx="464" cy="453.9" r="3"/>
<circle class="st4" cx="452.7" cy="471.1" r="3"/>
<circle class="st4" cx="490.8" cy="441.4" r="3"/>
<circle class="st4" cx="518.5" cy="426.4" r="3"/>
<circle class="st4" cx="493.6" cy="466.3" r="3"/>
<circle class="st4" cx="476.2" cy="482" r="3"/>
<circle class="st4" cx="515.5" cy="453.9" r="3"/>
<path class="st1" d="M594,81.5H0.5V35.3H594V81.5z M594.4,41.8H0.9V72h593.5V41.8L594.4,41.8z"/>
<path class="st5" d="M392.5,158.2c-16.1,0-29.2-12.7-29.2-28.4c0-15.6,13.1-28.4,29.2-28.4s29.2,12.7,29.2,28.4
	C421.6,145.5,408.5,158.2,392.5,158.2z M369,129.8c0,12.5,10.5,22.7,23.5,22.7s23.5-10.2,23.5-22.7s-10.5-22.7-23.5-22.7
	S369,117.3,369,129.8z"/>
</svg>
